<?xml version="1.0" encoding="UTF-8" standalone="no"?>
<svg
   xmlns:dc="http://purl.org/dc/elements/1.1/"
   xmlns:cc="http://creativecommons.org/ns#"
   xmlns:rdf="http://www.w3.org/1999/02/22-rdf-syntax-ns#"
   xmlns:svg="http://www.w3.org/2000/svg"
   xmlns="http://www.w3.org/2000/svg"
   xmlns:sodipodi="http://sodipodi.sourceforge.net/DTD/sodipodi-0.dtd"
   xmlns:inkscape="http://www.inkscape.org/namespaces/inkscape"
   width="237"
   height="254"
   fill="none"
   version="1.1"
   id="svg5307"
   sodipodi:docname="garlic my1.svg"
   inkscape:version="0.92.1 r15371">
  <metadata
     id="metadata5313">
    <rdf:RDF>
      <cc:Work
         rdf:about="">
        <dc:format>image/svg+xml</dc:format>
        <dc:type
           rdf:resource="http://purl.org/dc/dcmitype/StillImage" />
        <dc:title></dc:title>
      </cc:Work>
    </rdf:RDF>
  </metadata>
  <defs
     id="defs5311" />
  <sodipodi:namedview
     pagecolor="#ffffff"
     bordercolor="#666666"
     borderopacity="1"
     objecttolerance="10"
     gridtolerance="10"
     guidetolerance="10"
     inkscape:pageopacity="0"
     inkscape:pageshadow="2"
     inkscape:window-width="1538"
     inkscape:window-height="878"
     id="namedview5309"
     showgrid="false"
     inkscape:zoom="2.6279874"
     inkscape:cx="120.2125"
     inkscape:cy="114.28257"
     inkscape:window-x="54"
     inkscape:window-y="-8"
     inkscape:window-maximized="1"
     inkscape:current-layer="svg5307" />
  <path
     fill="#6895A9"
     d="M104.215 242.103c-.638-1.37-1.307-4.155-.175-5.464.957-1.11-.646-2.732-1.61-1.613-1.9 2.2-1.3 5.814-.175 8.234.615 1.332 2.583.175 1.967-1.15l-.007-.007z"
     id="path5257" />
  <path
     fill="#6895A9"
     d="M104.944 245.125a13.298 13.298 0 0 1-2.438-1.522 2.974 2.974 0 0 1-.76-.822c0-.053.144-.152 0 .153.076-.145.501-.26.63-.305 1.368-.502.76-2.709-.607-2.2-1.618.587-2.773 1.736-1.983 3.51.653 1.468 2.636 2.457 3.988 3.142 1.352.685 2.461-1.301 1.147-1.97l.023.014zm-7.566 4.961c-1.276-2.078-1.74-5.038.76-6.43a1.141 1.141 0 0 0-1.148-1.972c-3.562 2.01-3.486 6.408-1.519 9.55.76 1.249 2.742.107 1.968-1.148h-.061z"
     id="path5259" />
  <path
     fill="#6895A9"
     d="M96.967 247.408c-1.58-.852-2.142-2.656-3.449-3.805-.342-.304-.76-.494-1.109-.814a4.145 4.145 0 0 1-.41-.464c.35.487-1.74 1.157-.965 1.347.876.292 1.72.678 2.514 1.149 1.307.654 2.462-1.317 1.148-1.971a12.386 12.386 0 0 0-3.29-1.43 1.32 1.32 0 0 0-1.453.619 1.326 1.326 0 0 0 .177 1.572c.805 1.119 2.036 1.659 2.818 2.8a8.448 8.448 0 0 0 2.88 2.976c1.29.7 2.446-1.271 1.147-1.971l-.008-.008zm7.98-5.693a12.553 12.553 0 0 1-5.318-5.327c-.684-1.31-2.651-.153-1.967 1.149a14.667 14.667 0 0 0 6.077 6.088c1.299.677 2.454-1.286 1.147-1.971l.06.06z"
     id="path5261" />
  <path
     fill="#6895A9"
     d="M101.753 247.583c-1.937-2.009-4.39-5.121-1.367-7.336 1.17-.86.038-2.838-1.147-1.97-4.376 3.203-2.28 7.647.911 10.927 1.026 1.058 2.636-.555 1.61-1.613l-.007-.008z"
     id="path5263" />
  <path
     fill="#C7B299"
     d="M90.694 247.247a1.138 1.138 0 0 0 1.14-1.142 1.143 1.143 0 0 0-1.14-1.141 1.138 1.138 0 0 0-1.14 1.141 1.143 1.143 0 0 0 1.14 1.142z"
     id="path5265" />
  <path
     fill="#6895A9"
     d="M91.678 251.234c-.873-1.88-.98-4.223-.987-6.27a1.142 1.142 0 0 0-1.14-1.142 1.138 1.138 0 0 0-1.139 1.142 17.991 17.991 0 0 0 1.291 7.427c.616 1.332 2.583.175 1.968-1.15l.007-.007z"
     id="path5267" />
  <path
     fill="#C7B299"
     d="M82.718 243.823a1.138 1.138 0 0 0 1.14-1.142 1.143 1.143 0 0 0-1.14-1.141 1.138 1.138 0 0 0-1.14 1.141 1.143 1.143 0 0 0 1.14 1.142z"
     id="path5269" />
  <path
     fill="#6895A9"
     d="M81.577 250.672a18.738 18.738 0 0 1 2.127-7.412c.638-1.317-1.33-2.474-1.968-1.15a21.428 21.428 0 0 0-2.43 8.57c-.039 1.476 2.24 1.468 2.278 0l-.007-.008zm-21.65-4.566c0-2.778 1.003-4.787 3.723-5.746 1.375-.487.76-2.694-.608-2.2-3.692 1.31-5.318 4.103-5.394 7.953a1.143 1.143 0 0 0 1.14 1.142 1.138 1.138 0 0 0 1.14-1.142v-.007z"
     id="path5271" />
  <path
     fill="#6895A9"
     d="M60.502 247.096a22.03 22.03 0 0 0 3.32-2.336c.517-.411 1.026-.822 1.557-1.21.168-.122.342-.236.517-.343.175-.106.137-.076 0 0-2.985 1.15-.889-1.849-1.261-1.065-.63 1.324 1.337 2.48 1.967 1.149.342-.761.578-1.674-.273-2.177a1.835 1.835 0 0 0-1.975.381c-1.702 1.164-3.175 2.694-5.014 3.66-1.306.685-.152 2.649 1.147 1.971l.015-.03zm11.81 2.99a12.553 12.553 0 0 1 5.318-5.327c1.306-.684.152-2.655-1.147-1.97a14.667 14.667 0 0 0-6.078 6.087c-.676 1.302 1.284 2.458 1.968 1.15l-.06.06zm22.789-5.7c-.881-1.856-1.39-3.85-2.279-5.707l-1.967 1.149c1.299 2.435 3.259 4.414 4.558 6.849a1.148 1.148 0 0 0 2.127-.578 30.415 30.415 0 0 0-1.178-9.437c-.372-1.172-2.378-1.027-2.24.305.197 1.963 2.119 5.327 4.253 5.67 1.436.235 2.051-1.964.608-2.2-1.04-.168-2.477-2.458-2.583-3.463l-2.24.305a28.378 28.378 0 0 1 1.1 8.827l2.128-.578c-1.3-2.435-3.26-4.414-4.558-6.85-.7-1.308-2.59-.159-1.968 1.15.881 1.857 1.39 3.85 2.28 5.707.63 1.332 2.597.168 1.967-1.149H95.1z"
     id="path5273" />
  <path
     fill="#6895A9"
     d="M92.932 248.085c-.478-1.408-1.003-2.793-1.52-4.193a24.28 24.28 0 0 1-.523-1.75 11.181 11.181 0 0 1-.167-.83l-.046-.51c0-.507-.025-.553-.076-.137l-1.284.525c-.309-.223-.337-.21-.083.038l.493.67c.393.553.82 1.082 1.277 1.583 1.002 1.08 2.613-.54 1.61-1.614-.76-.76-1.52-2.648-2.69-2.884a1.19 1.19 0 0 0-1.283.525c-.66.89-.076 2.71.175 3.653.486 1.88 1.284 3.683 1.907 5.525.47 1.385 2.674.761 2.195-.609l.015.008z"
     id="path5275" />
  <path
     fill="#6895A9"
     d="M87.275 250.672c0-3.592-.114-7.123-1.177-10.578l-1.671 1.286c2.096 1.18 3.107 3.227 4.147 5.327.661 1.317 2.629.16 1.968-1.15-1.223-2.442-2.522-4.732-4.968-6.087a1.145 1.145 0 0 0-1.644.627 1.151 1.151 0 0 0-.027.659c1.01 3.265 1.093 6.583 1.101 9.97a1.143 1.143 0 0 0 1.14 1.14 1.138 1.138 0 0 0 1.139-1.14l-.008-.054z"
     id="path5277" />
  <path
     fill="#6895A9"
     d="M87.239 251.51c-1.254-3.805-2.439-7.557-3.419-11.415l-2.081.86c.888 1.986 1.063 4.216 2.453 5.935.927 1.142 2.53-.479 1.61-1.613-1.154-1.43-1.344-3.805-2.103-5.479-.547-1.218-2.393-.335-2.082.883.98 3.858 2.165 7.61 3.419 11.415.463 1.392 2.666.76 2.195-.61l.008.024zm-7.942-.838c0-1.872.243-3.706.425-5.563.072-.85.072-1.706 0-2.557 0-.525 0-2.374-.76-1.575h-1.61c.448.358.707 2.215.76 2.846.091 1.461 2.37 1.469 2.279 0-.076-1.225-.372-3.63-1.413-4.46a1.154 1.154 0 0 0-1.61 0c-.927 1.043.083 2.969.106 4.209.053 2.367-.471 4.733-.51 7.1a1.143 1.143 0 0 0 1.14 1.142 1.138 1.138 0 0 0 1.14-1.142h.053z"
     id="path5279" />
  <path
     fill="#6895A9"
     d="M75.842 250.367c-.206-.852-1.694-6.43.038-6.544 1.458-.092 1.466-2.375 0-2.283-4.452.289-2.895 6.735-2.241 9.436.341 1.43 2.544.822 2.195-.609h.008zm-5.696-.533c1.147-3.455 2.233-6.91 2.316-10.578 0-1.476-2.278-1.468-2.278 0-.084 3.463-1.155 6.712-2.241 9.97-.464 1.4 1.74 1.993 2.195.608h.008zm-8.092-2.03c2.765-4.124 5.705-8.127 7.976-12.556.668-1.31-1.299-2.466-1.967-1.15-2.28 4.43-5.212 8.432-7.977 12.557-.82 1.225 1.155 2.367 1.968 1.15zm.54-121.556c19.963-6.788 25.479-38.864 28.426-57.075C94.21 49.585 95.014 7.803 105.043 2 108.5 0 114.758.467 116.5 5.5c.941 2.72-1.366 5.373.758 7.314 1.951 1.782 4.462-2.127 6.723-.761C133 17.5 92.972 89.043 99.057 133.089l-36.463-6.84z"
     id="path5281"
     style="fill:#f0f6c0;fill-opacity:1" />
  <path
     fill="#8BB2C3"
     d="M92.002 120c11.387 26.275 10.764 8.508 10 4-.248-1.465-.314-2.104-.625-3.558-1.375-6.442 25.358 22.83 34.587 32.29 9.382 9.603 25.175 25.31 29.68 37.7 6.077 16.741-4.558 34.944-19.136 43.376-9.64 5.586-16.826 3.486-26.436 3.394-9.61-.091-19.698 4.095-27.347-1.118-15.672-10.654-11.691-37.54-10.856-53.932.525-10.243 8.133-60.651 8.133-60.651-.764-1.973-1.143-8.752 2-1.5z"
     id="path5283" />
  <path
     fill="#8BB2C3"
     d="M77.02 114.84c-1.02.16-2.553-.532-2.5 2.116-.76-.722-2.85-3.112-5.226-3.112-4.294 0-24.309 19.953-34.184 30.996-10.901 12.176-25.069 26.43-31.906 40.774-16.864 35.409 37.071 68.536 63.31 43.118 14.714-14.268 18.505-33.849 18.482-53.369 0-15.106 6.837-40.561-2.28-52.509 0 0-4.677-8.172-5.696-8.013z"
     id="path5285" />
  <path
     fill="#6895A9"
     d="M75.05 224.395c-32.52 40.614-61.53-19.786-47.303-50.485 9.876-21.308 36.57-41.574 52.697-58.034 4.042 3.622 1.125 8.858 2.28 13.378a39.9 39.9 0 0 1 2.278-5.44c3.844 7.206-1.519 22.304-2.279 30.919-1.14 13.104 0 25.79 0 38.62.023 10.556-.76 22.412-7.672 31.042zm66.062-6.796c4.816-13.637 4.87-30.06-1.147-42.54-5.82-12.077-15.3-21.528-23.094-31.71-6.7-8.744-14.152-21.156-23.762-26.08 4.24 7.663 2.28 18.812 4.422 27.251 2.354 9.292 7.437 18.067 8.865 27.396 2.188 14.315-2.021 28.157-3.799 42.266-.653 5.267-1.443 12.176.061 17.298 7.354 25.143 33.714-.419 38.454-13.881z"
     id="path5287"
     style="stroke:none;stroke-opacity:1;fill:none" />
  <path
     fill="#8BB2C3"
     d="M120.322 217.569c-10.028 27.495-47.547 33.857-69.95 17.503-16.803-12.245-12.42-36.68-6.639-54.07 8.243-24.8 37.269-66.002 38.097-66.077 1.718-.156 1.472 8.195 4.057 6.613 1.56-.954.505-5.737 1.709-4.36 6.406 7.322 30.386 39.054 34.754 61.808 2.317 12.16 2.18 27.039-2.028 38.583z"
     id="path5289" />
  <path
     fill="#9DC4D5"
     d="M53.189 219.326C69.825 222.994 70.6 188.3 52.17 196.32c-9.032 3.919-9.17 20.76 1.018 23.005zm1.063-27.776c9.328 2.055 9.761-17.389-.57-12.899-5.052 2.184-5.128 11.636.57 12.9z"
     id="path5291" />
  <path
     fill="#6895A9"
     d="M228.124 171.142c0 .357.061-.168 0 .136.069-.228 0 0-.06.061.151-.22 0 0-.054.038l-.25.26a2.635 2.635 0 0 0-.76 1.787 1.142 1.142 0 0 0 1.14 1.142 1.138 1.138 0 0 0 1.139-1.142c0-.357-.06.168 0-.136-.068.228 0 0 .06-.061-.151.22 0 0 .054-.038l.25-.26a2.635 2.635 0 0 0 .76-1.787 1.143 1.143 0 0 0-1.14-1.142 1.138 1.138 0 0 0-1.139 1.142z"
     id="path5293" />
  <path
     fill="#6895A9"
     d="M226.825 168.12c-1.056 2.283-1.626 5.06.175 7.092.98 1.104 2.582-.517 1.61-1.613-.972-1.096-.395-3.105.175-4.323.57-1.217-1.345-2.48-1.968-1.149l.008-.007z"
     id="path5295" />
  <path
     fill="#6895A9"
     d="M227.802 164.13c0 .898 0 1.796-.053 2.694-.017.32-.055.637-.114.952 0-.054-.121.418-.068.296.136-.304.85-.35 1.04-.182-1.086-.982-2.704.631-1.61 1.613s2.279.487 2.758-.806c.478-1.294.326-3.12.326-4.566a1.143 1.143 0 0 0-1.14-1.142 1.138 1.138 0 0 0-1.139 1.142zm-2.508.87a2.124 2.124 0 0 0-1.93 1.142 5.115 5.115 0 0 0-.35 2.283 1.143 1.143 0 0 0 1.14 1.141 1.139 1.139 0 0 0 1.14-1.141v-.868c0-.372-.046.198 0-.144 0-.071.017-.14.053-.206.083-.296-.107.168.045-.076 0 .054-.273.221-.076.107-.075.045-.311.053-.053.045a1.138 1.138 0 0 0 1.14-1.141 1.143 1.143 0 0 0-1.14-1.142h.03z"
     id="path5297" />
  <path
     fill="#6895A9"
     d="M223.194 162.049a8.332 8.332 0 0 0-1.9 2.461 4.912 4.912 0 0 0 .062 3.494c.457 1.392 2.66.787 2.197-.61a2.91 2.91 0 0 1-.211-1.96 6.35 6.35 0 0 1 1.473-1.816 1.143 1.143 0 0 0-.02-1.613 1.138 1.138 0 0 0-1.612.022l.011.022zm-5.601-.999c.42 1.124.693 2.298.813 3.492a10.891 10.891 0 0 1-.813 3.897c-.456 1.4 1.747 2.001 2.195.608a12.6 12.6 0 0 0 0-8.599c-.455-1.393-2.65-.761-2.195.609v-.008z"
     id="path5299" />
  <path
     fill="#6895A9"
     d="M217.686 242.834c-17.624 14.124-32.84 11.856-52.545 9.132-6.191-.86-11.023-.038-15.687-2.998a16.297 16.297 0 0 1-3.403-2.938c-15.672-17.38 17.062-33.415 26.937-43.78 8.204-8.615 34.055-39.869 49.248-34.504a10.4 10.4 0 0 1 1.307.563h.046c.698.366 1.724 1.454 4.125 3.73 3.426 3.241 5.537 10.76 6.836 15.166 6.351 20.79.152 42-16.864 55.63z"
     id="path5301"
     style="fill:#dcdfcc;fill-opacity:1" />
  <path
     fill="#8BB2C3"
     d="M217.682 242.834c-17.624 14.124-32.84 11.856-52.545 9.132-6.191-.86-11.023-.038-15.687-2.998-5.363-13.105 10.848-25.562 19.964-33.758 17.328-15.662 36.676-30.106 52.849-47.464a10.4 10.4 0 0 1 1.306.563h.046c.699.365 1.724 1.454 4.125 3.729 3.426 3.242 5.538 10.76 6.837 15.167 6.32 20.79.121 42-16.895 55.629z"
     id="path5303" />
  <path
     fill="#9DC4D5"
     d="M176.345 223.17c8.158 9.976 11.6-16.11.6-5.624-1.55 1.476-2.264 3.622-.6 5.624zm-16.668 19.443c16.052 19.641 22.79-31.71 1.185-11.065-3.046 2.907-4.444 7.062-1.185 11.065z"
     id="path5305" />
  <path
     style="opacity:1;fill:#d6de92;fill-opacity:1;stroke:none;stroke-width:1.61440682;stroke-linecap:butt;stroke-linejoin:miter;stroke-miterlimit:4;stroke-dasharray:none;stroke-dashoffset:0;stroke-opacity:1;paint-order:markers fill stroke"
     d="M 49.359571,237.40477 C 39.052323,235.67143 28.326112,220.64772 25.318955,203.7322 c -0.904161,-5.08599 -0.763027,-18.28771 0.241897,-22.62711 2.425113,-10.47199 11.45734,-23.23595 27.547907,-38.92953 10.525877,-10.26618 25.867856,-24.75424 26.213243,-24.75424 0.169319,0 -1.491158,2.60323 -3.689946,5.78496 -9.00256,13.02704 -19.104319,29.72499 -24.561,40.59869 -5.870398,11.69813 -9.801963,23.07761 -11.550484,33.4316 -1.276167,7.55691 -0.890218,19.20413 0.796765,24.04492 2.274648,6.52709 6.134359,11.23616 12.943649,15.79199 l 1.330544,0.89022 -1.330544,-0.0633 c -0.731799,-0.0348 -2.487436,-0.25785 -3.901415,-0.49563 z"
     id="path5866"
     inkscape:connector-curvature="0" />
  <path
     style="opacity:1;fill:#d6de92;fill-opacity:1;stroke:none;stroke-width:1.61440682;stroke-linecap:butt;stroke-linejoin:miter;stroke-miterlimit:4;stroke-dasharray:none;stroke-dashoffset:0;stroke-opacity:1;paint-order:markers fill stroke"
     d="m 109.51095,240.88438 c -2.03038,-1.05599 -4.03602,-2.91334 -4.03602,-3.73763 0,-0.34613 1.39331,-1.74687 3.09625,-3.11274 10.40511,-8.34564 15.19759,-20.68438 15.19503,-39.12116 -0.002,-12.9079 -2.28396,-22.73383 -8.12418,-34.97882 -3.66211,-7.67822 -6.56251,-12.66924 -13.4996,-23.23015 -5.056424,-7.69782 -5.999108,-9.48248 -6.648674,-12.58708 -0.416285,-1.98963 -0.899828,-4.06789 -1.074539,-4.61836 -0.513135,-1.61674 0.571207,-1.17097 3.897483,1.60223 3.67569,3.06452 6.25046,6.04489 13.09297,15.1554 2.77867,3.69968 8.33701,10.84343 12.35188,15.875 12.41993,15.56507 15.9099,21.20356 18.65253,30.13559 1.39334,4.53773 1.48787,5.47117 1.49866,14.79873 0.01,8.63414 -0.14919,10.56262 -1.19935,14.52966 -2.1796,8.2335 -5.31905,13.67292 -11.91757,20.64837 -7.27126,7.68663 -16.17208,11.30007 -21.28487,8.64096 z"
     id="path5868"
     inkscape:connector-curvature="0" />
  <path
     style="opacity:1;fill:none;fill-opacity:1;stroke:none;stroke-width:0.80720341;stroke-linecap:butt;stroke-linejoin:miter;stroke-miterlimit:4;stroke-dasharray:none;stroke-dashoffset:0;stroke-opacity:1;paint-order:markers fill stroke"
     d="m 54.670289,191.45591 c -1.162242,-0.20573 -2.591059,-1.22885 -3.64201,-2.60789 -0.697949,-0.91584 -0.747476,-1.15257 -0.744267,-3.55738 0.0039,-2.9368 0.463845,-4.15476 2.11706,-5.6063 1.073598,-0.94263 3.357274,-1.54206 4.825509,-1.26662 2.230932,0.41853 3.951239,2.90756 3.951239,5.71686 0,4.44522 -3.093565,7.92565 -6.507531,7.32133 z"
     id="path5874"
     inkscape:connector-curvature="0" />
  <path
     style="opacity:1;fill:#d6de92;fill-opacity:1;fill-rule:nonzero;stroke:none;stroke-width:1.14155793;stroke-linecap:butt;stroke-linejoin:miter;stroke-miterlimit:4;stroke-dasharray:none;stroke-dashoffset:0;stroke-opacity:1;paint-order:markers fill stroke"
     d="m 163.59791,245.95082 c -3.10086,-1.97016 -5.65974,-5.6754 -5.6788,-8.22287 -0.0136,-1.81303 1.37138,-4.14368 3.91209,-6.58339 6.64928,-6.38496 11.68382,-5.51844 12.32357,2.12107 0.42813,5.11247 -1.67389,10.69972 -4.76229,12.65832 -2.18326,1.38458 -3.64697,1.39137 -5.79457,0.0269 z"
     id="path5880"
     inkscape:connector-curvature="0" />
  <path
     style="opacity:1;fill:#d6de92;fill-opacity:1;fill-rule:nonzero;stroke:none;stroke-width:1.14155793;stroke-linecap:butt;stroke-linejoin:miter;stroke-miterlimit:4;stroke-dasharray:none;stroke-dashoffset:0;stroke-opacity:1;paint-order:markers fill stroke"
     d="m 177.62971,223.90911 c -2.64384,-2.76574 -2.71946,-4.0253 -0.37863,-6.30618 1.80339,-1.7572 3.99648,-2.70434 5.00818,-2.1629 1.90571,1.0199 1.75448,6.3795 -0.24713,8.75828 -1.34543,1.59896 -2.66044,1.51218 -4.38242,-0.2892 z"
     id="path5882"
     inkscape:connector-curvature="0" />
  <path
     style="opacity:1;fill:#d6de92;fill-opacity:1;fill-rule:nonzero;stroke:none;stroke-width:0.02522511;stroke-linecap:butt;stroke-linejoin:miter;stroke-miterlimit:4;stroke-dasharray:none;stroke-dashoffset:0;stroke-opacity:1;paint-order:markers fill stroke"
     d="m 223.18442,166.36747 c -0.0128,-0.0101 -0.0302,-0.0337 -0.0388,-0.0526 -0.0322,-0.071 -0.0144,-0.25027 0.0436,-0.43745 0.0297,-0.096 0.10936,-0.30943 0.1138,-0.30499 0.002,0.002 -0.004,0.0531 -0.0134,0.11439 -0.0269,0.18325 -0.0366,0.35168 -0.0306,0.5328 l 0.005,0.16606 h -0.0284 c -0.0164,0 -0.0382,-0.008 -0.0516,-0.0182 z"
     id="path5890"
     inkscape:connector-curvature="0" />
  <path
     style="opacity:1;fill:#d9dfaa;fill-opacity:1;fill-rule:nonzero;stroke:none;stroke-width:1.14155793;stroke-linecap:butt;stroke-linejoin:miter;stroke-miterlimit:4;stroke-dasharray:none;stroke-dashoffset:0;stroke-opacity:1;paint-order:markers fill stroke"
     d="m 180.74444,253.82858 c -1.04643,-0.0865 -5.32727,-0.58007 -9.51299,-1.09687 -4.18571,-0.51681 -9.58725,-1.10994 -12.00342,-1.31808 -4.23448,-0.36478 -6.63234,-0.88542 -8.81484,-1.91396 -1.31962,-0.62189 -1.98887,-3.34102 -1.73987,-7.06905 0.32568,-4.87622 3.08459,-9.95073 8.59622,-15.81118 3.70765,-3.9423 15.67223,-14.59797 32.16091,-28.64256 14.56668,-12.40748 20.24403,-17.5056 27.74643,-24.91557 l 5.22987,-5.16544 1.35913,0.73194 c 2.06819,1.1138 5.53864,5.05931 6.92169,7.86919 1.54535,3.13963 3.67477,9.55444 4.90829,14.78607 1.317,5.58568 1.63694,14.29423 0.72823,19.822 -0.75557,4.59625 -2.64724,10.56681 -4.5366,14.31857 -7.12167,14.14175 -21.41247,25.14709 -35.99539,27.72003 -3.3304,0.5876 -11.64545,0.96607 -15.04766,0.68491 z m -10.72568,-7.86094 c 3.32074,-2.53285 5.38701,-10.37802 4.02524,-15.28297 -0.62446,-2.24926 -2.56381,-4.0133 -4.41212,-4.0133 -2.27842,0 -5.31183,1.72481 -8.32135,4.73155 -2.07781,2.07589 -2.80202,3.0917 -3.17797,4.45757 -0.80813,2.93604 -0.0339,5.16276 2.81404,8.09304 3.20994,3.30279 6.4419,4.02032 9.07216,2.01411 z m 11.54076,-21.1122 c 1.79765,-1.44998 2.7547,-5.03844 2.04585,-7.67091 -0.74747,-2.77589 -3.06831,-2.79993 -6.18431,-0.064 -2.55946,2.24723 -2.52874,4.6673 0.0893,7.03252 1.67238,1.5109 2.80358,1.70713 4.04918,0.70243 z"
     id="path5892"
     inkscape:connector-curvature="0" />
  <path
     style="opacity:1;fill:#d9dfaa;fill-opacity:1;fill-rule:nonzero;stroke:none;stroke-width:1.14155793;stroke-linecap:butt;stroke-linejoin:miter;stroke-miterlimit:4;stroke-dasharray:none;stroke-dashoffset:0;stroke-opacity:1;paint-order:markers fill stroke"
     d="m 109.56156,240.74483 c -0.85131,-0.42139 -2.1068,-1.34288 -2.78998,-2.04774 -1.52409,-1.57246 -1.44819,-1.72619 2.55587,-5.17638 9.52608,-8.20836 13.88176,-19.02121 14.42007,-35.79741 0.52204,-16.26927 -2.61577,-28.365 -11.66615,-44.97108 -3.50768,-6.43605 -11.32868,-18.71859 -15.081009,-23.68406 -0.948925,-1.25572 -2.399471,-3.7386 -3.223437,-5.51753 -3.239545,-6.99412 -3.894995,-7.8748 -4.390752,-5.89955 l -0.251953,1.00386 -1.046786,-1.00289 -1.046786,-1.00288 -0.274928,1.83352 c -0.712692,4.75302 -2.076765,4.18519 -3.617434,-1.50582 -0.270584,-0.9995 -0.669241,-1.92683 -0.885905,-2.06074 -0.216664,-0.1339 -0.920919,0.37894 -1.56501,1.13967 l -1.171075,1.38313 -1.260568,-1.51324 -1.260569,-1.51323 0.737757,-1.04358 c 1.283546,-1.81561 4.310382,-8.13127 5.788792,-12.07863 4.38668,-11.712476 7.296211,-26.876095 9.893184,-51.560372 2.899816,-27.562811 4.604261,-36.540478 8.257099,-43.491842 0.75328,-1.4334966 1.89836,-2.9983376 2.54461,-3.4774244 4.03367,-2.99027552 9.74435,-1.93391897 11.89469,2.2002683 0.42984,0.8263955 0.50152,1.7461804 0.302,3.8752617 -0.24802,2.6467894 -0.21179,2.8414834 0.69798,3.7512534 1.00089,1.000892 1.97289,0.974939 3.99384,-0.106637 1.12242,-0.600701 2.58724,-0.522377 3.28528,0.175666 0.92522,0.925216 0.76584,5.357338 -0.36164,10.056582 -0.52724,2.197499 -4.45557,14.440708 -8.7296,27.207132 -4.27405,12.766423 -8.79252,26.903987 -10.04106,31.416805 -3.66572,13.249706 -6.109945,26.169957 -6.743061,35.644077 l -0.260265,3.89468 3.187906,3.35546 c 1.75334,1.84551 5.40479,6.25732 8.11431,9.80402 2.70953,3.54671 8.35824,10.81502 12.5527,16.1518 12.55305,15.97178 15.77821,20.78633 18.58278,27.74051 2.77915,6.89119 3.02309,8.6494 2.85248,20.55951 -0.14515,10.13298 -0.18574,10.60612 -1.192,13.89363 -2.26782,7.40913 -4.67653,11.78882 -9.64254,17.53277 -7.84875,9.07829 -17.54194,13.61181 -23.15884,10.83143 z"
     id="path5894"
     inkscape:connector-curvature="0" />
  <path
     style="opacity:1;fill:#d9dfaa;fill-opacity:1;fill-rule:nonzero;stroke:none;stroke-width:1.14155793;stroke-linecap:butt;stroke-linejoin:miter;stroke-miterlimit:4;stroke-dasharray:none;stroke-dashoffset:0;stroke-opacity:1;paint-order:markers fill stroke"
     d="m 49.571992,237.31435 c -10.606161,-1.78687 -21.857296,-17.93131 -24.256444,-34.80596 -0.483191,-3.39857 -0.48345,-15.10858 -4.17e-4,-18.83571 1.109838,-8.56362 6.60355,-18.16204 17.497999,-30.57189 5.127894,-5.84118 35.255821,-35.1298 35.689933,-34.69569 0.07041,0.0704 -2.251236,3.69704 -5.159207,8.05917 -20.556806,30.83646 -30.380555,51.16423 -33.808759,69.95871 -0.846144,4.63882 -0.96304,17.56964 -0.19433,21.49644 1.388199,7.09134 5.41389,13.03621 12.221234,18.04749 l 2.36296,1.73952 -1.278548,-0.0448 c -0.703202,-0.0246 -2.086691,-0.18091 -3.074421,-0.34732 z"
     id="path5896"
     inkscape:connector-curvature="0" />
  <path
     style="opacity:1;fill:#f0f6c0;fill-opacity:1;fill-rule:nonzero;stroke:none;stroke-width:1.14155793;stroke-linecap:butt;stroke-linejoin:miter;stroke-miterlimit:4;stroke-dasharray:none;stroke-dashoffset:0;stroke-opacity:1;paint-order:markers fill stroke"
     d="m 109.58732,240.78866 c -1.51305,-0.70206 -3.99545,-2.87564 -3.99545,-3.49839 0,-0.17923 1.07021,-1.31474 2.37824,-2.52336 5.98426,-5.52944 8.45544,-8.66159 10.91197,-13.83059 4.92222,-10.35726 6.32355,-27.71126 3.39312,-42.02013 -2.65114,-12.94513 -10.60431,-28.89113 -23.656931,-47.43186 -1.672221,-2.37532 -4.211159,-6.67323 -5.642087,-9.55091 -1.430927,-2.87768 -2.755122,-5.23214 -2.942654,-5.23214 -0.187533,0 -0.45385,0.44976 -0.591817,0.99946 l -0.250849,0.99946 -0.861356,-0.8092 c -0.473745,-0.44506 -0.959302,-0.8092 -1.079014,-0.8092 -0.119713,0 -0.329743,0.74743 -0.466735,1.66095 -0.578042,3.85467 -1.995995,3.68016 -3.256462,-0.40075 -1.19695,-3.87528 -1.234162,-3.906 -2.740072,-2.26221 l -1.297063,1.41582 -1.24203,-1.54554 -1.24203,-1.54554 1.359152,-2.23741 c 6.610795,-10.88254 11.419844,-29.78747 14.285682,-56.158673 0.43213,-3.976427 1.126459,-10.397691 1.542954,-14.269475 2.88302,-26.800906 6.206252,-37.9642905 11.955182,-40.1598272 2.41248,-0.92133497 5.75506,-0.63178073 7.72034,0.6687822 2.2266,1.4734899 2.90878,3.2114214 2.59964,6.6228544 -0.22484,2.4812296 -0.16887,2.8609366 0.52385,3.5536526 0.97243,0.972427 1.75084,0.974683 3.92853,0.01139 4.55306,-2.014033 5.44364,1.988199 2.71024,12.179784 -0.53324,1.988214 -4.20327,13.289638 -8.15563,25.114275 -3.95236,11.824638 -7.86559,23.810997 -8.69606,26.636353 -4.5987,15.645204 -7.021774,27.505244 -8.063324,39.467004 l -0.43798,5.03002 3.466094,3.72193 c 4.15364,4.46022 28.49539,35.69312 32.85355,42.15438 3.4241,5.07647 5.72171,9.62485 7.59601,15.03721 l 1.24954,3.60825 0.005,11.98635 0.005,11.98636 -1.64901,4.81271 c -2.02303,5.90433 -4.26864,9.95322 -8.05515,14.52366 -6.83896,8.25484 -14.00237,12.80196 -20.16661,12.80113 -1.60841,-2.2e-4 -3.00566,-0.24732 -3.99545,-0.70658 z"
     id="path5902"
     inkscape:connector-curvature="0" />
  <path
     style="opacity:1;fill:#f0f6c0;fill-opacity:1;fill-rule:nonzero;stroke:none;stroke-width:1.14155793;stroke-linecap:butt;stroke-linejoin:miter;stroke-miterlimit:4;stroke-dasharray:none;stroke-dashoffset:0;stroke-opacity:1;paint-order:markers fill stroke"
     d="M 48.553784,237.10425 C 38.35801,234.36245 28.040499,219.43597 25.49584,203.74602 c -0.660891,-4.07495 -0.767718,-16.13498 -0.179493,-20.2636 1.292637,-9.07274 7.529873,-19.50532 19.451055,-32.5344 5.634607,-6.15826 33.348049,-32.93053 33.711726,-32.56685 0.06973,0.0697 -2.506511,4.12955 -5.724985,9.02182 -19.592073,29.7811 -28.423406,47.64417 -32.414036,65.56363 -2.029321,9.11243 -2.026497,22.20429 0.0061,28.26691 2.045014,6.09966 6.216263,11.36998 12.068089,15.24789 0.784821,0.52009 1.426947,1.00848 1.426947,1.08531 0,0.33916 -3.418286,0.0402 -5.287456,-0.46248 z"
     id="path5904"
     inkscape:connector-curvature="0" />
  <path
     style="opacity:1;fill:#f0f6c0;fill-opacity:1;fill-rule:nonzero;stroke:none;stroke-width:1.14155793;stroke-linecap:butt;stroke-linejoin:miter;stroke-miterlimit:4;stroke-dasharray:none;stroke-dashoffset:0;stroke-opacity:1;paint-order:markers fill stroke"
     d="m 167.04574,252.17962 c -13.03815,-1.51862 -14.17734,-1.70298 -16.05427,-2.59802 -2.89875,-1.38232 -3.05105,-7.90085 -0.31746,-13.58751 3.16124,-6.5763 8.99828,-12.34318 35.41775,-34.99204 16.84536,-14.44117 22.33885,-19.35015 29.533,-26.39066 l 6.73168,-6.58791 1.07386,0.55589 c 1.38772,0.71836 4.78553,4.18837 6.21389,6.34593 1.99026,3.00631 5.20203,12.74235 6.33764,19.21166 0.81977,4.67008 0.82075,13.84774 0.002,18.08338 -0.85199,4.40721 -2.88544,10.30515 -4.87281,14.1334 -4.92277,9.48267 -14.50539,18.55672 -24.44744,23.14996 -9.92455,4.58516 -18.34367,5.15382 -39.61777,2.67592 z m 2.82095,-6.01376 c 2.46652,-1.82629 4.21462,-6.03166 4.50401,-10.83521 0.2357,-3.91226 -0.42041,-6.16231 -2.24448,-7.69716 -2.30957,-1.94337 -5.90961,-0.814 -10.33686,3.24277 -2.68991,2.46481 -4.07114,4.79813 -4.05799,6.85517 0.0177,2.76596 2.75056,6.69941 5.7449,8.26871 0.97879,0.51296 1.27418,0.5915 0.71558,0.19026 -3.39826,-2.441 -6.08831,-6.16948 -6.08831,-8.43855 0,-3.55082 7.48542,-10.69997 11.20326,-10.69997 2.63293,0 4.27592,2.19088 4.6504,6.20118 0.2774,2.97054 -0.34946,6.04773 -1.83936,9.02928 -1.22333,2.4481 -3.00801,3.98068 -5.35201,4.59598 -1.11649,0.29308 -1.07226,0.3104 0.43723,0.17119 0.92366,-0.0852 2.1223,-0.48283 2.66363,-0.88365 z m 11.4723,-21.0293 c 1.02754,-0.54992 2.26165,-3.12873 2.51304,-5.25125 0.27331,-2.30771 -0.59122,-4.50873 -1.89998,-4.8372 -1.54108,-0.38679 -4.96357,1.77413 -6.0543,3.82261 -0.22287,0.41857 0.46201,-0.0454 1.52195,-1.03093 2.9396,-2.73337 4.84242,-2.94143 5.72374,-0.62586 1.01995,2.67983 -0.94998,7.93536 -2.97441,7.93536 -0.88566,0 -2.93319,-1.71032 -3.85273,-3.2182 -0.5355,-0.87814 -0.70637,-0.98484 -0.70745,-0.4418 -0.002,0.99736 3.13059,4.04052 4.15924,4.04052 0.45986,0 1.16677,-0.17696 1.5709,-0.39325 z"
     id="path5908"
     inkscape:connector-curvature="0" />
  <path
     style="opacity:1;fill:#f0f6c0;fill-opacity:1;fill-rule:nonzero;stroke:none;stroke-width:0.80720341;stroke-linecap:butt;stroke-linejoin:miter;stroke-miterlimit:4;stroke-dasharray:none;stroke-dashoffset:0;stroke-opacity:1;paint-order:markers fill stroke"
     d="m 53.458527,219.40154 c -3.595569,-0.76432 -6.468909,-3.69161 -7.53274,-7.67415 -0.47925,-1.79412 -0.461262,-5.5743 0.0356,-7.48189 1.143047,-4.38845 3.825521,-7.26791 7.973348,-8.55886 6.808261,-2.11897 11.805377,2.35444 11.805377,10.56814 0,2.95195 -0.360304,4.68301 -1.486139,7.14007 -2.11464,4.61507 -6.324014,6.9572 -10.795446,6.00669 z"
     id="path5910"
     inkscape:connector-curvature="0" />
  <path
     style="opacity:1;fill:#f0f6c0;fill-opacity:1;fill-rule:nonzero;stroke:none;stroke-width:0.80720341;stroke-linecap:butt;stroke-linejoin:miter;stroke-miterlimit:4;stroke-dasharray:none;stroke-dashoffset:0;stroke-opacity:1;paint-order:markers fill stroke"
     d="m 53.177795,191.17332 c -2.172696,-1.01522 -3.591946,-4.12645 -3.188722,-6.99021 0.267352,-1.89877 1.390588,-3.99548 2.615964,-4.88313 1.259954,-0.91271 3.534217,-1.48539 4.889299,-1.23118 2.23385,0.41908 3.743651,2.7888 3.766068,5.91109 0.02253,3.13867 -1.017966,5.5539 -2.968434,6.89038 -1.295287,0.88755 -3.574262,1.02259 -5.114175,0.30305 z"
     id="path5912"
     inkscape:connector-curvature="0" />
  <path
     style="opacity:1;fill:#dcdfcc;fill-opacity:1;fill-rule:nonzero;stroke:none;stroke-width:0.80720341;stroke-linecap:butt;stroke-linejoin:miter;stroke-miterlimit:4;stroke-dasharray:none;stroke-dashoffset:0;stroke-opacity:1;paint-order:markers fill stroke"
     d="m 73.274011,243.59857 c -5.942609,-0.73338 -11.088082,-2.18736 -15.740466,-4.44786 -4.128785,-2.00609 -6.858755,-3.87063 -9.73478,-6.64877 -4.826969,-4.66267 -7.391694,-9.49965 -8.255842,-15.57023 -1.212238,-8.51588 -0.606499,-18.30167 1.680801,-27.15354 3.882077,-15.02368 11.647385,-30.99628 26.217818,-53.9279 8.357821,-13.15393 13.634136,-20.58369 14.617697,-20.58369 0.202759,0 0.631088,0.9738 1.035569,2.35435 0.942292,3.21615 1.415528,4.10328 2.188889,4.10328 0.824717,0 1.402488,-0.9297 1.599417,-2.57362 0.268492,-2.24133 0.313165,-2.26325 1.60945,-0.78973 l 1.183516,1.34534 0.0055,-1.41261 c 0.003,-0.77693 0.115056,-1.4126 0.248917,-1.4126 0.345572,0 1.611213,2.32064 3.328342,6.10276 1.032992,2.27524 2.317667,4.44411 4.267195,7.20414 13.375926,18.93689 21.416796,34.60753 24.315706,47.38824 1.34155,5.91462 1.59377,8.57703 1.60391,16.93092 0.0107,8.82605 -0.3322,12.15583 -1.88804,18.33323 -1.44143,5.72317 -3.57688,10.38074 -6.62653,14.45295 -1.2152,1.62267 -2.38312,2.81979 -8.10399,8.30661 -1.56888,1.50469 -1.59581,1.55464 -1.18025,2.18887 l 0.42527,0.64904 -2.56171,0.19206 c -2.07059,0.15524 -2.93195,0.3623 -4.492821,1.08005 -1.062105,0.4884 -2.445692,1.04047 -3.074638,1.22681 -0.628946,0.18635 -1.143538,0.41497 -1.143538,0.50804 0,0.0931 -0.211891,0.18608 -0.470869,0.2067 -0.258977,0.0206 -1.378972,0.28506 -2.488877,0.58765 -3.766136,1.02678 -6.77186,1.41527 -11.704449,1.5128 -2.663771,0.0527 -5.751324,-0.0163 -6.861229,-0.15329 z M 59.370945,218.75748 c 2.72441,-1.33293 4.998809,-4.43813 5.963519,-8.1419 0.463913,-1.78109 0.53153,-6.35713 0.120292,-8.14096 -0.718316,-3.11583 -2.554208,-5.55477 -5.036899,-6.69138 -1.281666,-0.58676 -1.736223,-0.65333 -3.784864,-0.55429 -3.227899,0.15607 -5.632356,1.26159 -7.812293,3.59195 -2.28403,2.44163 -3.037509,4.44626 -3.20003,8.51364 -0.106632,2.66867 -0.03982,3.42317 0.444286,5.01697 0.971129,3.19723 3.3593,5.77571 6.334564,6.83935 2.005428,0.71692 5.00089,0.53071 6.971425,-0.43338 z m -1.537096,-27.5904 c 2.549531,-1.15779 4.083319,-5.14953 3.345067,-8.70567 -0.36999,-1.78224 -1.152322,-3.03744 -2.440969,-3.91638 -0.79983,-0.54554 -1.170364,-0.61986 -2.557654,-0.51302 -3.614042,0.27833 -5.94317,2.71616 -6.250271,6.54199 -0.230761,2.8748 1.213029,5.82638 3.293436,6.73287 1.170367,0.50996 3.323339,0.44468 4.610391,-0.13979 z"
     id="path5914"
     inkscape:connector-curvature="0" />
  <path
     style="opacity:1;fill:#dcdfcc;fill-opacity:1;fill-rule:nonzero;stroke:none;stroke-width:0.80720341;stroke-linecap:butt;stroke-linejoin:miter;stroke-miterlimit:4;stroke-dasharray:none;stroke-dashoffset:0;stroke-opacity:1;paint-order:markers fill stroke"
     d="M 39.773381,237.41883 C 32.540109,236.7202 24.761434,233.85401 18.249647,229.48801 3.4626466,219.5737 -2.9267071,204.46784 1.5758561,190.06743 c 2.283387,-7.30289 9.1241329,-17.64431 19.5784099,-29.59746 21.914001,-25.05589 42.964504,-45.54729 47.703315,-46.4363 1.132442,-0.21244 3.150593,0.67464 4.478757,1.96864 0.552238,0.53804 1.041419,0.92557 1.087069,0.8612 0.04565,-0.0644 0.201475,-0.4803 0.346269,-0.92426 0.228656,-0.70109 0.40862,-0.81787 1.368974,-0.88834 1.011558,-0.0742 1.190027,0.0174 2.095976,1.07578 l 0.990266,1.1569 -1.293766,1.19675 c -10.741615,9.93614 -27.234109,25.82932 -31.181024,30.04796 -13.736689,14.68237 -20.418339,25.51023 -21.686068,35.14304 -0.514048,3.90599 -0.421561,16.68158 0.143697,19.84948 1.880223,10.53743 6.588072,20.38917 12.982654,27.16776 2.785861,2.95316 5.97231,5.14007 9.250242,6.3486 l 0.944613,0.34826 -0.941737,0.0206 c -0.517956,0.0113 -1.910381,0.0715 -3.09428,0.13372 -1.183898,0.0622 -3.243025,0.008 -4.575842,-0.1209 z"
     id="path5916"
     inkscape:connector-curvature="0" />
  <path
     style="opacity:1;fill:#dcdfcc;fill-opacity:1;fill-rule:nonzero;stroke:none;stroke-width:0.80720341;stroke-linecap:butt;stroke-linejoin:miter;stroke-miterlimit:4;stroke-dasharray:none;stroke-dashoffset:0;stroke-opacity:1;paint-order:markers fill stroke"
     d="m 126.0113,236.69416 c 3.36849,-2.6342 8.65162,-8.42315 11.19656,-12.26856 3.33857,-5.04458 6.05416,-12.56753 6.54296,-18.12587 0.36477,-4.14778 0.37205,-14.11032 0.0132,-17.98124 -0.53695,-5.79128 -3.69569,-13.66327 -8.25951,-20.58369 -2.76203,-4.18826 -4.15419,-6.03976 -14.46547,-19.23834 -4.1621,-5.32755 -9.19328,-11.80535 -11.1804,-14.39513 -1.98713,-2.58978 -4.53,-5.80132 -5.65083,-7.13676 l -2.03787,-2.42808 -0.36544,-2.34916 c -0.201,-1.29204 -0.29077,-2.42384 -0.19951,-2.51511 0.88644,-0.88643 10.14811,7.76696 24.8028,23.17381 3.23754,3.40371 9.04912,9.46585 12.91464,13.47142 8.0591,8.35112 12.42856,13.18433 16.19522,17.91412 6.86601,8.62165 10.38685,15.2764 11.39672,21.541 0.38581,2.39333 0.23344,8.75834 -0.25955,10.84253 -0.29682,1.25485 -0.47444,1.46297 -2.64077,3.09428 -4.8208,3.63019 -10.24556,8.08031 -12.78633,10.48905 -5.45891,5.17525 -8.67912,10.15263 -9.28174,14.34647 l -0.20096,1.39859 -2.14915,0.64887 c -1.94715,0.58789 -2.7308,0.65777 -8.33771,0.74356 l -6.18856,0.0947 z"
     id="path5918"
     inkscape:connector-curvature="0" />
  <path
     style="opacity:1;fill:#dcdfcc;fill-opacity:1;fill-rule:nonzero;stroke:none;stroke-width:0.28538948;stroke-linecap:butt;stroke-linejoin:miter;stroke-miterlimit:4;stroke-dasharray:none;stroke-dashoffset:0;stroke-opacity:1;paint-order:markers fill stroke"
     d="m 228.72964,173.11531 c -0.23544,-0.31187 -0.93459,-1.0595 -1.55366,-1.66141 l -1.12558,-1.09437 0.30647,-0.93573 c 0.41006,-1.25204 0.6348,-1.63981 1.01573,-1.75255 0.1676,-0.0496 0.32438,-0.14142 0.34841,-0.20403 0.024,-0.0626 0.0747,-0.94241 0.11266,-1.9551 l 0.069,-1.84126 0.30886,-0.30917 c 0.35415,-0.35452 0.80695,-0.41068 1.29139,-0.16016 0.47424,0.24523 0.55898,0.60313 0.55524,2.34509 -0.006,2.66377 -0.35912,3.7997 -1.34196,4.31328 -0.13822,0.0722 -0.2993,0.26902 -0.35798,0.43733 l -0.10668,0.30603 0.22383,-0.21028 c 0.49347,-0.46359 1.1986,-0.42005 1.63712,0.1011 0.23042,0.27384 0.25202,0.36084 0.20857,0.84007 -0.0571,0.62956 -0.25355,1.05621 -0.70219,1.52489 -0.17959,0.18761 -0.35681,0.44961 -0.39382,0.58221 -0.0649,0.23264 -0.0823,0.22119 -0.49539,-0.32594 z"
     id="path5920"
     inkscape:connector-curvature="0" />
  <path
     style="opacity:1;fill:#dcdfcc;fill-opacity:1;fill-rule:nonzero;stroke:none;stroke-width:0.28538948;stroke-linecap:butt;stroke-linejoin:miter;stroke-miterlimit:4;stroke-dasharray:none;stroke-dashoffset:0;stroke-opacity:1;paint-order:markers fill stroke"
     d="m 224.3961,168.85004 c -0.51617,-0.44778 -1.4238,-0.89894 -2.49516,-1.24029 -0.81854,-0.26079 -0.83499,-0.2922 -0.81732,-1.56065 0.0136,-0.97353 0.18374,-1.5202 0.72888,-2.34148 0.46074,-0.69414 1.35943,-1.67587 1.69113,-1.8474 0.56239,-0.29082 1.20105,-0.0711 1.4757,0.50767 0.23715,0.49975 0.11544,0.86999 -0.49614,1.50929 -0.85464,0.89336 -1.36621,1.7445 -1.36621,2.27306 0,0.33135 0.1534,0.36023 0.28072,0.0528 0.36094,-0.87139 1.62117,-1.40406 2.38603,-1.00854 0.78352,0.40518 0.71473,1.61656 -0.11077,1.95074 -0.17623,0.0713 -0.35188,0.17495 -0.39032,0.23024 -0.0384,0.0553 -0.0705,0.40615 -0.0713,0.77968 -0.001,0.51123 -0.0439,0.73156 -0.17307,0.89109 l -0.17161,0.21193 z"
     id="path5922"
     inkscape:connector-curvature="0" />
  <path
     style="opacity:1;fill:#dcdfcc;fill-opacity:1;fill-rule:nonzero;stroke:none;stroke-width:0.28538948;stroke-linecap:butt;stroke-linejoin:miter;stroke-miterlimit:4;stroke-dasharray:none;stroke-dashoffset:0;stroke-opacity:1;paint-order:markers fill stroke"
     d="m 219.04485,167.16721 c -0.87478,-0.0276 -0.97489,-0.0485 -0.92912,-0.19398 0.0994,-0.31618 0.22813,-1.12245 0.29174,-1.82786 0.0517,-0.57374 0.0169,-0.94637 -0.1779,-1.9026 -0.13322,-0.65401 -0.3295,-1.44197 -0.43617,-1.75101 -0.21846,-0.6329 -0.24328,-1.08017 -0.072,-1.29751 0.41664,-0.52872 1.19321,-0.63312 1.67759,-0.22554 0.32642,0.27467 0.64204,1.17786 0.91141,2.60815 0.17491,0.92871 0.20359,3.16109 0.0519,4.04302 -0.054,0.31393 -0.0984,0.58148 -0.0987,0.59456 -3e-4,0.0131 -0.0541,0.0148 -0.11946,0.004 -0.0654,-0.011 -0.5601,-0.034 -1.09933,-0.051 z"
     id="path5924"
     inkscape:connector-curvature="0" />
  <path
     style="opacity:1;fill:#dcdfcc;fill-opacity:1;fill-rule:nonzero;stroke:none;stroke-width:0.14269474;stroke-linecap:butt;stroke-linejoin:miter;stroke-miterlimit:4;stroke-dasharray:none;stroke-dashoffset:0;stroke-opacity:1;paint-order:markers fill stroke"
     d="m 77.732303,251.73201 c -0.21498,-0.0625 -0.522476,-0.34825 -0.643241,-0.59771 -0.101804,-0.2103 -0.105176,-0.2559 -0.07648,-1.03441 0.01651,-0.44793 0.07194,-1.21039 0.123191,-1.69437 0.140907,-1.33074 0.28049,-2.73568 0.315779,-3.17842 l 0.03155,-0.39588 -0.239198,0.12121 c -0.3484,0.17655 -1.305188,0.82899 -1.745261,1.19011 l -0.380519,0.31225 -0.03095,-0.43969 c -0.0374,-0.53125 0.02269,-1.26018 0.12954,-1.57148 0.04305,-0.12543 0.1508,-0.30495 0.239438,-0.39893 l 0.16116,-0.17088 0.321187,0.0306 c 0.176653,0.0168 1.247904,0.0444 2.380559,0.0613 l 2.059372,0.0307 -0.03032,0.14735 c -0.04641,0.22553 -0.238571,0.48923 -0.4417,0.60614 l -0.183109,0.10538 -0.17434,1.78699 c -0.185158,1.89786 -0.266966,2.98773 -0.268166,3.57257 -9.14e-4,0.44561 -0.105562,0.86757 -0.276227,1.11381 -0.254366,0.36701 -0.801083,0.54032 -1.27226,0.40331 z"
     id="path5926"
     inkscape:connector-curvature="0" />
  <path
     style="opacity:1;fill:#dcdfcc;fill-opacity:1;fill-rule:nonzero;stroke:none;stroke-width:0.14269474;stroke-linecap:butt;stroke-linejoin:miter;stroke-miterlimit:4;stroke-dasharray:none;stroke-dashoffset:0;stroke-opacity:1;paint-order:markers fill stroke"
     d="m 90.277605,252.91806 c -0.312244,-0.09 -0.491818,-0.34351 -0.755136,-1.06586 -0.281631,-0.77258 -0.435604,-1.28942 -0.630041,-2.11486 -0.238368,-1.01193 -0.432345,-2.37035 -0.432345,-3.02771 0,-0.23286 -0.04446,-0.34585 -0.442533,-1.12463 -0.423685,-0.82888 -1.068068,-1.91574 -1.110604,-1.8732 -0.01113,0.0111 0.02271,0.40289 0.0752,0.87058 0.150925,1.34474 0.189736,1.99731 0.248914,4.18526 0.04959,1.83366 0.04756,2.07469 -0.01927,2.27769 -0.06541,0.19868 -0.06638,0.25071 -0.0078,0.41679 0.253637,0.71889 -0.261712,1.38066 -1.075329,1.38086 -0.451486,9e-5 -0.80473,-0.20724 -0.996138,-0.5847 -0.125914,-0.2483 -1.595205,-4.83322 -2.073016,-6.46883 -0.09553,-0.32701 -0.188885,-0.61074 -0.207457,-0.63053 -0.01857,-0.0198 -0.124418,0.21567 -0.235213,0.52322 -0.542085,1.50474 -0.892111,3.12323 -1.049683,4.85364 -0.0533,0.58534 -0.177375,0.84438 -0.492802,1.02886 -0.630614,0.36883 -1.348919,0.19777 -1.636332,-0.38968 l -0.128418,-0.26248 0.05634,-0.67081 c 0.155058,-1.84603 0.601856,-3.83175 1.258508,-5.59322 l 0.256902,-0.68914 1.232742,-0.081 c 3.792706,-0.24923 7.353095,-0.86173 10.840854,-1.86497 0.867307,-0.24948 1.720944,-0.44062 1.766103,-0.39546 0.01181,0.0118 0.106219,0.13505 0.20979,0.27387 0.180988,0.24258 0.188176,0.24697 0.184839,0.113 -0.0019,-0.0767 -0.01944,-0.25147 -0.03896,-0.38846 l -0.03548,-0.24907 0.19354,-0.0706 c 0.106448,-0.0388 0.471796,-0.16994 0.811885,-0.2913 1.146314,-0.40907 2.484417,-0.961 3.727878,-1.53764 0.391687,-0.18164 0.868987,-0.37417 1.060647,-0.42785 0.52253,-0.14633 1.42325,-0.28991 2.02515,-0.3228 0.4825,-0.0264 0.53511,-0.0213 0.53511,0.0512 0,0.38612 0.17122,1.45547 0.31981,1.99736 0.0729,0.26575 0.0922,0.28962 0.38976,0.48101 0.17219,0.11077 0.4736,0.28715 0.66981,0.39196 0.49404,0.2639 0.64293,0.47537 0.63994,0.90887 -0.002,0.36111 -0.10554,0.60504 -0.36263,0.85849 -0.30069,0.29644 -0.67361,0.39946 -1.05723,0.29205 -0.18659,-0.0522 -0.24088,-0.0476 -0.47811,0.0412 -0.30708,0.1149 -0.45357,0.12169 -0.70319,0.0326 -0.0976,-0.0349 -0.16714,-0.0466 -0.15444,-0.026 0.0575,0.093 1.29352,0.8777 1.82722,1.16003 0.66784,0.35331 0.78749,0.4474 0.91201,0.7172 0.3183,0.68966 -0.28714,1.56978 -1.07544,1.56334 -0.25315,-0.002 -0.35255,-0.0361 -0.87995,-0.30126 -1.26234,-0.63468 -2.1289,-1.19598 -2.74114,-1.77551 -1.293821,-1.22471 -1.511576,-2.65166 -0.55731,-3.65211 l 0.27281,-0.28602 -0.26813,-0.26813 -0.268136,-0.26813 -0.0977,0.11566 c -0.06055,0.0717 -0.08721,0.15183 -0.07012,0.21079 0.174207,0.6009 -0.06869,1.25279 -0.566726,1.521 -0.205903,0.11089 -0.216553,0.14825 -0.16892,0.59257 0.127707,1.19124 0.943741,2.57773 2.488392,4.2279 0.22828,0.24387 0.45566,0.53283 0.50528,0.64212 0.31469,0.69313 -0.27388,1.56862 -1.05533,1.56978 -0.37598,5.5e-4 -0.60996,-0.15148 -1.141104,-0.74148 -0.884645,-0.98268 -1.565694,-1.91203 -2.005662,-2.73691 l -0.210675,-0.39498 -0.03294,0.3712 c -0.05352,0.60304 -0.302067,0.96985 -0.760785,1.12275 l -0.189117,0.063 0.282477,0.17186 c 0.155362,0.0945 0.344152,0.23641 0.419531,0.31531 0.179933,0.18833 0.271037,0.5386 0.216297,0.83161 -0.05391,0.28856 -0.110146,0.39328 -0.338877,0.63102 l -0.188458,0.19589 0.169599,0.33678 c 0.09328,0.18523 0.209504,0.37533 0.258277,0.42246 0.202777,0.19592 0.252685,0.62723 0.108984,0.94185 -0.180134,0.39438 -0.556383,0.6458 -1.018534,0.68063 -0.357731,0.0269 -0.649264,-0.0831 -0.854024,-0.32234 -0.441914,-0.51636 -1.063142,-1.93796 -1.299438,-2.97359 -0.06388,-0.27997 -0.110978,-0.3697 -0.299612,-0.57078 -0.304003,-0.32408 -0.600056,-0.71766 -0.96759,-1.28634 -0.269724,-0.41735 -1.060958,-1.29853 -1.116293,-1.24319 -0.01005,0.0101 0.04834,0.19785 0.129755,0.41734 0.409723,1.10465 0.800118,2.23542 0.852355,2.46885 0.08324,0.37194 0.0069,0.62861 -0.264456,0.88959 -0.381248,0.36661 -0.96907,0.44109 -1.433321,0.18162 l -0.215985,-0.12072 0.02923,0.18277 c 0.04703,0.2941 0.259176,0.98907 0.466639,1.52866 0.105828,0.27525 0.210019,0.58607 0.231537,0.69071 0.04204,0.20447 -0.0092,0.52164 -0.118303,0.73269 -0.118975,0.23007 -0.476565,0.5166 -0.743734,0.59594 -0.279981,0.0831 -0.376578,0.0865 -0.604173,0.0208 z m 12.148835,-9.42361 c -0.0647,-0.085 -0.17627,-0.28983 -0.24787,-0.45511 -0.11634,-0.26859 -0.14199,-0.29756 -0.24146,-0.2726 -0.0711,0.0179 -0.11129,0.007 -0.11129,-0.03 0,-0.0438 -0.0134,-0.0446 -0.0549,-0.003 -0.0415,0.0415 -0.0222,0.099 0.0788,0.23545 0.12163,0.16427 0.63498,0.67999 0.67687,0.67999 0.01,0 -0.0354,-0.0696 -0.10017,-0.15458 z"
     id="path5928"
     inkscape:connector-curvature="0" />
  <path
     style="opacity:1;fill:#dcdfcc;fill-opacity:1;fill-rule:nonzero;stroke:none;stroke-width:0.14269474;stroke-linecap:butt;stroke-linejoin:miter;stroke-miterlimit:4;stroke-dasharray:none;stroke-dashoffset:0;stroke-opacity:1;paint-order:markers fill stroke"
     d="m 71.107575,250.50305 c -0.390048,-0.13471 -0.726265,-0.503 -0.794307,-0.87007 -0.105902,-0.5713 0.755568,-2.0557 2.089085,-3.59971 l 0.38509,-0.44588 0.05252,0.80262 c 0.02889,0.44143 0.101303,1.14508 0.160924,1.56365 l 0.1084,0.76103 -0.27216,0.42809 c -0.149688,0.23545 -0.343658,0.56901 -0.431045,0.74125 -0.181808,0.35836 -0.416221,0.58701 -0.675661,0.65905 -0.242805,0.0674 -0.327463,0.062 -0.622849,-0.04 z"
     id="path5930"
     inkscape:connector-curvature="0" />
  <path
     style="opacity:1;fill:#dcdfcc;fill-opacity:1;fill-rule:nonzero;stroke:none;stroke-width:0.14269474;stroke-linecap:butt;stroke-linejoin:miter;stroke-miterlimit:4;stroke-dasharray:none;stroke-dashoffset:0;stroke-opacity:1;paint-order:markers fill stroke"
     d="m 59.602367,247.17394 c -0.21382,-0.0726 -0.26785,-0.0755 -0.397871,-0.0208 -0.2027,0.0852 -0.625767,0.08 -0.842641,-0.0105 -0.233823,-0.0975 -0.476811,-0.33324 -0.585907,-0.56837 -0.196315,-0.42311 -0.06591,-1.96654 0.270944,-3.20673 0.292406,-1.07656 0.870128,-2.18278 1.524739,-2.91957 l 0.14993,-0.16875 0.301937,0.12293 c 0.166065,0.0676 0.679687,0.26547 1.14138,0.43969 l 0.839444,0.31676 -0.40251,0.37136 c -0.478591,0.44155 -0.807894,0.88929 -1.095815,1.48993 -0.198956,0.41504 -0.489734,1.39966 -0.489734,1.65831 0,0.11061 0.01496,0.10523 0.368628,-0.13252 0.471754,-0.31713 1.091961,-0.78221 1.724228,-1.29296 0.274688,-0.22189 0.505477,-0.39761 0.512866,-0.39047 0.0074,0.007 -0.408223,0.63122 -0.923581,1.38685 -1.496149,2.19369 -1.76829,2.61781 -1.809971,2.82075 l -0.03865,0.18816 z"
     id="path5932"
     inkscape:connector-curvature="0" />
  <path
     style="opacity:1;fill:#dcdfcc;fill-opacity:1;fill-rule:nonzero;stroke:none;stroke-width:0.07134737;stroke-linecap:butt;stroke-linejoin:miter;stroke-miterlimit:4;stroke-dasharray:none;stroke-dashoffset:0;stroke-opacity:1;paint-order:markers fill stroke"
     d="m 64.560016,244.1447 c 0,-0.008 0.169623,-0.26296 0.37694,-0.56711 0.207316,-0.30415 0.481898,-0.71086 0.610182,-0.9038 0.128283,-0.19293 0.244942,-0.35096 0.259241,-0.35116 0.02783,-4e-4 1.019339,0.24165 1.033008,0.25218 0.01443,0.0111 -0.0688,0.27717 -0.155578,0.49734 -0.107316,0.27228 -0.268375,0.51672 -0.408742,0.62035 -0.133803,0.0988 -0.369286,0.17636 -0.535327,0.17636 -0.144742,0 -0.358301,-0.0517 -0.48905,-0.11841 l -0.0927,-0.0473 -0.193984,0.14825 c -0.367395,0.28078 -0.403994,0.30735 -0.403994,0.29329 z"
     id="path5934"
     inkscape:connector-curvature="0" />
</svg>
