<?xml version="1.0" encoding="UTF-8" standalone="no"?>
<!-- Created with Inkscape (http://www.inkscape.org/) -->

<svg
   xmlns:dc="http://purl.org/dc/elements/1.1/"
   xmlns:cc="http://creativecommons.org/ns#"
   xmlns:rdf="http://www.w3.org/1999/02/22-rdf-syntax-ns#"
   xmlns:svg="http://www.w3.org/2000/svg"
   xmlns="http://www.w3.org/2000/svg"
   xmlns:sodipodi="http://sodipodi.sourceforge.net/DTD/sodipodi-0.dtd"
   xmlns:inkscape="http://www.inkscape.org/namespaces/inkscape"
   version="1.1"
   id="svg4670"
   width="256"
   height="256"
   viewBox="0 0 256 256"
   sodipodi:docname="garlic main green 1.svg"
   inkscape:version="0.92.1 r15371">
  <metadata
     id="metadata4676">
    <rdf:RDF>
      <cc:Work
         rdf:about="">
        <dc:format>image/svg+xml</dc:format>
        <dc:type
           rdf:resource="http://purl.org/dc/dcmitype/StillImage" />
        <dc:title></dc:title>
      </cc:Work>
    </rdf:RDF>
  </metadata>
  <defs
     id="defs4674" />
  <sodipodi:namedview
     pagecolor="#ffffff"
     bordercolor="#666666"
     borderopacity="1"
     objecttolerance="10"
     gridtolerance="10"
     guidetolerance="10"
     inkscape:pageopacity="0"
     inkscape:pageshadow="2"
     inkscape:window-width="1538"
     inkscape:window-height="878"
     id="namedview4672"
     showgrid="false"
     inkscape:zoom="1.3037281"
     inkscape:cx="124.98983"
     inkscape:cy="126.02389"
     inkscape:window-x="54"
     inkscape:window-y="-8"
     inkscape:window-maximized="1"
     inkscape:current-layer="svg4670" />
  <g
     id="g5225"
     transform="matrix(0.95,0,0,0.95,4.9585283,7.0584902)">
    <path
       style="fill:none;paint-order:markers fill stroke"
       d="M 0,128 V 0 l 67.25,0.04656138 67.25,0.04656138 -4.81769,2.50700634 c -4.3066,2.2410504 -4.75935,2.7930574 -4.26775,5.2034386 1.46812,7.1983673 2.61482,17.0854793 3.63997,31.3846533 2.5003,34.874788 -3.82557,69.895679 -16.25075,89.966399 -14.851566,23.99016 -16.773826,28.74825 -17.511454,43.34538 -0.588484,11.64567 1.037859,19.48651 6.015164,29 3.75032,7.16825 14.4293,18.28795 20.69251,21.54648 l 4.5,2.3412 -12.11354,2.05616 C 101.63509,229.60827 99,230.8167 99,234.5 c 0,4.59491 4.66094,5.41493 16,2.81494 2.33205,-0.53473 2.24808,-0.3098 -1.25,3.34808 -4.18976,4.38115 -4.6042,6.25397 -1.92126,8.68199 2.86574,2.59346 4.88334,2.00445 10.2141,-2.98185 L 127,241.72632 v 5.93684 c 0,3.28421 0.53617,6.47301 1.2,7.13684 0.93333,0.93333 -13.17778,1.2 -63.5,1.2 L 0,256 Z m 111.66163,98.67171 c 0.34713,-0.34714 -2.47256,-3.90278 -6.26598,-7.90143 -12.149095,-12.80638 -17.514037,-26.19757 -17.469491,-43.60483 0.03875,-15.14194 4.013574,-27.34041 13.606671,-41.75795 10.87634,-16.34612 16.8063,-32.943 19.43008,-54.381266 1.19142,-9.734734 2.21035,-43.539427 0.28709,-40.011048 -0.69212,1.269745 -2.47377,4.005121 -4.58061,8.881708 C 109.54231,64.393597 101.31013,74.576967 86,85.835531 59.89273,105.03395 46.966031,130.06409 46.927316,161.49248 c -0.04161,33.78089 14.662455,58.08824 39.337234,65.02854 5.170708,1.45437 23.98179,1.56598 25.39708,0.15069 z M 60.685963,219.75 C 38.000541,196.96168 32.642508,153.61509 48.317472,119.68869 55.518371,104.10328 64.417928,93.388514 80.5,80.941994 90.579233,73.141296 96.130048,67.987819 94.424314,68.014408 92.329559,68.047062 71.376317,79.95494 62.776654,86 51.874623,93.663491 37.281156,107.81879 30.703619,117.11004 19.504978,132.92895 14,148.61721 14,164.71256 c 0,22.33928 8.546779,41.1543 23.561441,51.86854 7.186827,5.12841 20.641762,10.38384 26.640172,10.40552 L 67.903226,227 Z M 135.8,254.8 c 0.68778,-0.68778 1.2,-3.9813 1.2,-7.71584 v -6.51584 l 5.28145,5.21584 c 5.56364,5.49453 7.57471,6.21682 10.14712,3.64441 2.43086,-2.43086 1.89048,-4.79326 -2.01669,-8.81634 -3.21513,-3.31052 -3.34507,-3.63915 -1.25,-3.16149 10.39542,2.3701 11.35501,2.43907 13.58812,0.97664 2.50165,-1.63829 2.99804,-5.56167 0.92169,-7.28489 -0.73057,-0.60632 -3.09307,-1.5007 -5.25,-1.98751 -3.49999,-0.78994 -3.11521,-0.89008 3.57831,-0.93125 11.67985,-0.0718 19.6956,-3.59925 29.25754,-12.87506 C 214.53206,192.77062 219.68256,153.15702 203.52461,121 199.42317,112.83745 193.23802,104.53047 182.81615,93.18743 165.79009,74.656481 158.95,61.158279 149.48303,27.407985 146.41172,16.458593 143.28279,5.8125 142.52986,3.75 L 141.16089,0 H 198.58045 256 v 128 128 h -60.7 c -47.21111,0 -60.43333,-0.26667 -59.5,-1.2 z m 66.66504,-28.33291 c 13.82081,-3.59986 24.05078,-12.50287 31.18746,-27.14203 C 245.2289,175.57889 244.86618,144.81028 232.72326,120.5 225.26901,105.5765 215.83662,95.32011 197.5,82.199726 190.9,77.477234 182.0125,70.980143 177.75,67.761748 173.4875,64.543352 170,62.442704 170,63.093641 c 0,2.498858 11.24744,17.842661 20.08963,27.406359 22.58084,24.4234 30.86686,45.1449 29.63969,74.12234 -1.02827,24.28074 -9.49836,43.60073 -25.47314,58.1034 l -5.75618,5.22573 4.0399,0.0243 c 2.22195,0.0133 6.68826,-0.66555 9.92514,-1.50865 z"
       id="path5255"
       inkscape:connector-curvature="0"
       sodipodi:nodetypes="ccccssssssccsscscscssscccssssssssscssssssssscssscssccssccssssccccccsscsssssssscccc" />
    <path
       style="fill:#e9f2e9"
       d="m 122,245.5 c 2.42903,-2.475 4.64142,-4.5 4.91642,-4.5 0.275,0 -1.48739,2.025 -3.91642,4.5 -2.42903,2.475 -4.64142,4.5 -4.91642,4.5 -0.275,0 1.48739,-2.025 3.91642,-4.5 z M 104.94617,219.25 101.5,215.5 l 3.75,3.44617 c 2.0625,1.89539 3.75,3.58289 3.75,3.75 0,0.76362 -0.84622,0.0443 -4.05383,-3.44617 z M 30.437091,210.75 27.5,207.5 l 3.25,2.93709 c 1.7875,1.6154 3.25,3.0779 3.25,3.25 0,0.77256 -0.825128,0.0924 -3.562909,-2.93709 z M 87.194949,178.5 c 0.02038,-1.65 0.244498,-2.20394 0.498042,-1.23097 0.253543,0.97297 0.236869,2.32297 -0.03705,3 C 87.382014,180.94606 87.174569,180.15 87.194949,178.5 Z m 0,-6 c 0.02038,-1.65 0.244498,-2.20394 0.498042,-1.23097 0.253543,0.97297 0.236869,2.32297 -0.03705,3 C 87.382014,174.94606 87.174569,174.15 87.194949,172.5 Z m 124.884001,-3.08333 c 0.048,-1.16495 0.28494,-1.4019 0.60416,-0.60417 0.28887,0.72187 0.25335,1.58437 -0.0789,1.91667 -0.3323,0.33229 -0.56864,-0.25834 -0.52522,-1.3125 z M 220.232,160 c 0,-1.925 0.2058,-2.7125 0.45733,-1.75 0.25152,0.9625 0.25152,2.5375 0,3.5 -0.25153,0.9625 -0.45733,0.175 -0.45733,-1.75 z M 38,107.62244 c 0,-0.20765 0.7875,-0.99515 1.75,-1.75 1.586056,-1.24387 1.621426,-1.2085 0.377555,0.37756 C 38.821186,107.91575 38,108.44548 38,107.62244 Z M 72.5,97 c 2.148243,-2.2 4.130896,-4 4.405896,-4 0.275,0 -1.257653,1.8 -3.405896,4 -2.148243,2.2 -4.130896,4 -4.405896,4 -0.275,0 1.257653,-1.8 3.405896,-4 z M 186.92431,98.25 184.5,95.5 l 2.75,2.424314 C 189.82029,100.1902 190.45859,101 189.67431,101 c -0.17912,0 -1.41662,-1.2375 -2.75,-2.75 z M 47,98.622445 c 0,-0.207656 0.7875,-0.995156 1.75,-1.75 C 50.336056,95.628574 50.371426,95.663944 49.127555,97.25 47.821186,98.915748 47,99.445479 47,98.622445 Z M 186,86.5 c -0.68469,-0.825 -1.01989,-1.5 -0.74489,-1.5 0.275,0 1.0602,0.675 1.74489,1.5 0.68469,0.825 1.01989,1.5 0.74489,1.5 -0.275,0 -1.0602,-0.675 -1.74489,-1.5 z M 95,78.622445 c 0,-0.207656 0.7875,-0.995156 1.75,-1.75 C 98.336056,75.628574 98.371426,75.663944 97.127555,77.25 95.821186,78.915748 95,79.445479 95,78.622445 Z M 129.15789,65 c 0,-1.375 0.22698,-1.9375 0.50439,-1.25 0.27741,0.6875 0.27741,1.8125 0,2.5 -0.27741,0.6875 -0.50439,0.125 -0.50439,-1.25 z m 0,-21 c 0,-1.375 0.22698,-1.9375 0.50439,-1.25 0.27741,0.6875 0.27741,1.8125 0,2.5 -0.27741,0.6875 -0.50439,0.125 -0.50439,-1.25 z m -1.07894,-14.583333 c 0.048,-1.164943 0.28494,-1.4019 0.60416,-0.604167 0.28887,0.721875 0.25335,1.584375 -0.0789,1.916667 -0.3323,0.332291 -0.56864,-0.258334 -0.52522,-1.3125 z"
       id="path5253"
       inkscape:connector-curvature="0" />
    <path
       style="fill:#d7e8d7"
       d="m 59,219.5 c -0.684689,-0.825 -1.019889,-1.5 -0.744889,-1.5 0.275,0 1.0602,0.675 1.744889,1.5 0.684689,0.825 1.019889,1.5 0.744889,1.5 -0.275,0 -1.0602,-0.675 -1.744889,-1.5 z m 6,-5 c -0.684689,-0.825 -1.019889,-1.5 -0.744889,-1.5 0.275,0 1.0602,0.675 1.744889,1.5 0.684689,0.825 1.019889,1.5 0.744889,1.5 -0.275,0 -1.0602,-0.675 -1.744889,-1.5 z m 155.07895,-50.08333 c 0.048,-1.16495 0.28494,-1.4019 0.60416,-0.60417 0.28887,0.72187 0.25335,1.58437 -0.0789,1.91667 -0.3323,0.33229 -0.56864,-0.25834 -0.52522,-1.3125 z M 41,104.87418 c 0,-0.275 1.35,-1.79338 3,-3.37418 1.65,-1.5808 3,-2.649182 3,-2.374182 0,0.275 -1.35,1.793382 -3,3.374182 -1.65,1.5808 -3,2.64918 -3,2.37418 z M 183,94.5 c -0.68469,-0.825 -1.01989,-1.5 -0.74489,-1.5 0.275,0 1.0602,0.675 1.74489,1.5 0.68469,0.825 1.01989,1.5 0.74489,1.5 -0.275,0 -1.0602,-0.675 -1.74489,-1.5 z M 66,92.622445 c 0,-0.207656 0.7875,-0.995156 1.75,-1.75 C 69.336056,89.628574 69.371426,89.663944 68.127555,91.25 66.821186,92.915748 66,93.445479 66,92.622445 Z M 189.92431,90.25 187.5,87.5 l 2.75,2.424314 c 1.5125,1.333373 2.75,2.570873 2.75,2.75 0,0.784274 -0.8098,0.145975 -3.07569,-2.424314 z M 121.07895,71.416667 c 0.048,-1.164943 0.28494,-1.4019 0.60416,-0.604167 0.28887,0.721875 0.25335,1.584375 -0.0789,1.916667 -0.3323,0.332291 -0.56864,-0.258334 -0.52522,-1.3125 z"
       id="path5251"
       inkscape:connector-curvature="0" />
    <path
       style="fill:#cbe1cb"
       d="m 127.30987,246.5 c 0.006,-3.3 0.1923,-4.52944 0.41486,-2.73209 0.22256,1.79735 0.21797,4.49735 -0.0102,6 -0.22818,1.50265 -0.41027,0.0321 -0.40466,-3.26791 z"
       id="path5249"
       inkscape:connector-curvature="0" />
    <path
       style="fill:#b7d6b7"
       d="M 110.40499,213.75 108.5,211.5 l 2.25,1.90499 c 2.11444,1.79022 2.70524,2.59501 1.90499,2.59501 -0.18976,0 -1.20226,-1.0125 -2.25,-2.25 z"
       id="path5247"
       inkscape:connector-curvature="0" />
    <path
       style="fill:#a5cca5"
       d="m 136.32007,246 c 0,-3.575 0.1815,-5.0375 0.40333,-3.25 0.22182,1.7875 0.22182,4.7125 0,6.5 -0.22183,1.7875 -0.40333,0.325 -0.40333,-3.25 z M 114.264,240.43067 c 1.5202,-1.68814 2.4202,-3.44778 2,-3.91033 -0.4202,-0.46254 -0.2015,-0.51729 0.486,-0.12165 1.65089,0.95005 1.72321,0.79948 -2,4.16422 L 111.5,243.5 Z m -17.014,-13.12 c 0.9625,-0.25152 2.5375,-0.25152 3.5,0 0.9625,0.25153 0.175,0.45733 -1.75,0.45733 -1.925,0 -2.7125,-0.2058 -1.75,-0.45733 z M 14.157895,168 c 0,-1.375 0.226973,-1.9375 0.504386,-1.25 0.277412,0.6875 0.277412,1.8125 0,2.5 -0.277413,0.6875 -0.504386,0.125 -0.504386,-1.25 z M 212.232,160 c 0,-1.925 0.2058,-2.7125 0.45733,-1.75 0.25152,0.9625 0.25152,2.5375 0,3.5 -0.25153,0.9625 -0.45733,0.175 -0.45733,-1.75 z"
       id="path5245"
       inkscape:connector-curvature="0" />
    <path
       style="fill:#97c497"
       d="M 140.95821,244.25 136.5,239.5 l 4.75,4.45821 c 2.6125,2.45201 4.75,4.58951 4.75,4.75 0,0.75088 -0.89783,-0.043 -5.04179,-4.45821 z M 14.232003,163 c 0,-1.925 0.205795,-2.7125 0.457323,-1.75 0.251527,0.9625 0.251527,2.5375 0,3.5 -0.251528,0.9625 -0.457323,0.175 -0.457323,-1.75 z m 227.040357,-2 c 0,-2.475 0.19502,-3.4875 0.43337,-2.25 0.23836,1.2375 0.23836,3.2625 0,4.5 -0.23835,1.2375 -0.43337,0.225 -0.43337,-2.25 z M 98,76.622445 c 0,-0.207656 0.7875,-0.995156 1.75,-1.75 1.58606,-1.243871 1.62143,-1.208501 0.37756,0.377555 C 98.821186,76.915748 98,77.445479 98,76.622445 Z"
       id="path5243"
       inkscape:connector-curvature="0" />
    <path
       style="fill:#87bb87"
       d="M 148.43709,239.75 145.5,236.5 l 3.25,2.93709 c 3.02946,2.73778 3.70965,3.56291 2.93709,3.56291 -0.1721,0 -1.6346,-1.4625 -3.25,-3.25 z M 105,220.5 c -0.68469,-0.825 -1.01989,-1.5 -0.74489,-1.5 0.275,0 1.0602,0.675 1.74489,1.5 0.68469,0.825 1.01989,1.5 0.74489,1.5 -0.275,0 -1.0602,-0.675 -1.74489,-1.5 z m 85,-4.87756 c 0,-0.20765 0.7875,-0.99515 1.75,-1.75 1.58606,-1.24387 1.62143,-1.2085 0.37756,0.37756 C 190.82119,215.91575 190,216.44548 190,215.62244 Z m 31,0 c 0,-0.20765 0.7875,-0.99515 1.75,-1.75 1.58606,-1.24387 1.62143,-1.2085 0.37756,0.37756 C 221.82119,215.91575 221,216.44548 221,215.62244 Z M 95.194949,175.5 c 0.02038,-1.65 0.244498,-2.20394 0.498042,-1.23097 0.253543,0.97297 0.236869,2.32297 -0.03705,3 C 95.382014,177.94606 95.174569,177.15 95.194949,175.5 Z M 38.078947,160.41667 c 0.04798,-1.16495 0.284941,-1.4019 0.604167,-0.60417 0.288871,0.72187 0.253344,1.58437 -0.07895,1.91667 -0.332292,0.33229 -0.568641,-0.25834 -0.52522,-1.3125 z M 215,97.5 c -0.68469,-0.825 -1.01989,-1.5 -0.74489,-1.5 0.275,0 1.0602,0.675 1.74489,1.5 0.68469,0.825 1.01989,1.5 0.74489,1.5 -0.275,0 -1.0602,-0.675 -1.74489,-1.5 z M 121.07895,62.416667 c 0.048,-1.164943 0.28494,-1.4019 0.60416,-0.604167 0.28887,0.721875 0.25335,1.584375 -0.0789,1.916667 -0.3323,0.332291 -0.56864,-0.258334 -0.52522,-1.3125 z m 0,-16 c 0.048,-1.164943 0.28494,-1.4019 0.60416,-0.604167 0.28887,0.721875 0.25335,1.584375 -0.0789,1.916667 -0.3323,0.332291 -0.56864,-0.258334 -0.52522,-1.3125 z"
       id="path5241"
       inkscape:connector-curvature="0" />
    <path
       style="fill:#77b378"
       d="m 121.5,245 c 2.14824,-2.2 4.1309,-4 4.4059,-4 0.275,0 -1.25766,1.8 -3.4059,4 -2.14824,2.2 -4.1309,4 -4.4059,4 -0.275,0 1.25766,-1.8 3.4059,-4 z m 29.3989,-17.2989 c 0.46573,-0.46573 2.36651,-0.6903 4.22394,-0.49903 3.29402,0.33919 3.27318,0.36004 -0.84678,0.84678 -2.32317,0.27447 -3.84289,0.11798 -3.37716,-0.34775 z M 31.404988,210.75 29.5,208.5 l 2.25,1.90499 C 33.864445,212.19521 34.455241,213 33.654988,213 c -0.189757,0 -1.202257,-1.0125 -2.25,-2.25 z m 6.673959,-47.33333 c 0.04798,-1.16495 0.284941,-1.4019 0.604167,-0.60417 0.288871,0.72187 0.253344,1.58437 -0.07895,1.91667 -0.332292,0.33229 -0.568641,-0.25834 -0.52522,-1.3125 z M 121.32814,54.5 c -0.004,-3.85 0.17268,-5.547537 0.39359,-3.772304 0.22091,1.775232 0.22454,4.925232 0.008,7 C 121.51332,59.802463 121.33258,58.35 121.32814,54.5 Z m 8.92404,0 c -0.0111,-2.2 0.18461,-3.217747 0.4349,-2.261659 0.25029,0.956087 0.25937,2.756087 0.0202,4 -0.23921,1.243912 -0.444,0.461659 -0.4551,-1.738341 z"
       id="path5239"
       inkscape:connector-curvature="0" />
    <path
       style="fill:#67a968"
       d="M 65.404988,213.75 63.5,211.5 l 2.25,1.90499 C 67.864445,215.19521 68.455241,216 67.654988,216 c -0.189757,0 -1.202257,-1.0125 -2.25,-2.25 z M 86.194949,175.5 c 0.02038,-1.65 0.244498,-2.20394 0.498042,-1.23097 0.253543,0.97297 0.236869,2.32297 -0.03705,3 C 86.382014,177.94606 86.174569,177.15 86.194949,175.5 Z m -38.942766,-15 c -0.0111,-2.2 0.184605,-3.21775 0.434897,-2.26166 0.250293,0.95609 0.259374,2.75609 0.02018,4 C 47.468068,163.48225 47.263283,162.7 47.252183,160.5 Z M 40,106.62244 c 0,-0.20765 0.7875,-0.99515 1.75,-1.75 1.586056,-1.24387 1.621426,-1.2085 0.377555,0.37756 C 40.821186,106.91575 40,107.44548 40,106.62244 Z m 6,-6 c 0,-0.20765 0.7875,-0.995151 1.75,-1.749995 C 49.336056,97.628574 49.371426,97.663944 48.127555,99.25 46.821186,100.91575 46,101.44548 46,100.62244 Z m 26,-1.999995 c 0,-0.207656 0.7875,-0.995156 1.75,-1.75 C 75.336056,95.628574 75.371426,95.663944 74.127555,97.25 72.821186,98.915748 72,99.445479 72,98.622445 Z M 184.40499,96.75 182.5,94.5 l 2.25,1.904988 C 186.86444,98.195206 187.45524,99 186.65499,99 c -0.18976,0 -1.20226,-1.0125 -2.25,-2.25 z M 130.15789,60 c 0,-1.375 0.22698,-1.9375 0.50439,-1.25 0.27741,0.6875 0.27741,1.8125 0,2.5 -0.27741,0.6875 -0.50439,0.125 -0.50439,-1.25 z m 0,-11 c 0,-1.375 0.22698,-1.9375 0.50439,-1.25 0.27741,0.6875 0.27741,1.8125 0,2.5 -0.27741,0.6875 -0.50439,0.125 -0.50439,-1.25 z"
       id="path5237"
       inkscape:connector-curvature="0" />
    <path
       style="fill:#59a25a"
       d="m 161.75,227.33772 c 0.6875,-0.27741 1.8125,-0.27741 2.5,0 0.6875,0.27741 0.125,0.50439 -1.25,0.50439 -1.375,0 -1.9375,-0.22698 -1.25,-0.50439 z M 59,220.5 c -0.684689,-0.825 -1.019889,-1.5 -0.744889,-1.5 0.275,0 1.0602,0.675 1.744889,1.5 0.684689,0.825 1.019889,1.5 0.744889,1.5 -0.275,0 -1.0602,-0.675 -1.744889,-1.5 z M 43,103.62244 c 0,-0.20765 0.7875,-0.99515 1.75,-1.75 1.586056,-1.24387 1.621426,-1.2085 0.377555,0.37756 C 43.821186,103.91575 43,104.44548 43,103.62244 Z M 190.40499,89.75 188.5,87.5 l 2.25,1.904988 C 192.86444,91.195206 193.45524,92 192.65499,92 c -0.18976,0 -1.20226,-1.0125 -2.25,-2.25 z"
       id="path5235"
       inkscape:connector-curvature="0" />
    <path
       style="fill:#529d53"
       d="m 130.07895,43.416667 c 0.048,-1.164943 0.28494,-1.4019 0.60416,-0.604167 0.28887,0.721875 0.25335,1.584375 -0.0789,1.916667 -0.3323,0.332291 -0.56864,-0.258334 -0.52522,-1.3125 z"
       id="path5233"
       inkscape:connector-curvature="0" />
    <path
       style="fill:#469747"
       d="m 221.29966,160 c 0,-3.025 0.18747,-4.2625 0.41659,-2.75 0.22913,1.5125 0.22913,3.9875 0,5.5 -0.22912,1.5125 -0.41659,0.275 -0.41659,-2.75 z"
       id="path5231"
       inkscape:connector-curvature="0" />
    <path
       style="fill:#3b913c"
       d="m 128.32814,245.5 c -0.004,-3.85 0.17268,-5.54754 0.39359,-3.7723 0.22091,1.77523 0.22454,4.92523 0.008,7 -0.21648,2.07476 -0.39722,0.6223 -0.40166,-3.2277 z m 13.13427,-1.75 -4.96241,-5.25 5.25,4.96241 c 2.8875,2.72932 5.25,5.09182 5.25,5.25 0,0.74619 -0.92643,-0.084 -5.53759,-4.96241 z M 115,240.5 c 1.86578,-1.925 3.61733,-3.5 3.89233,-3.5 0.275,0 -1.02655,1.575 -2.89233,3.5 -1.86578,1.925 -3.61733,3.5 -3.89233,3.5 -0.275,0 1.02655,-1.575 2.89233,-3.5 z m 13.33333,-14.95601 c 0,-0.80081 0.38234,-1.21971 0.84965,-0.9309 0.4673,0.28881 0.59075,0.94401 0.27431,1.45601 -0.80862,1.30838 -1.12396,1.16106 -1.12396,-0.52511 z M 195,223.87418 c 0,-0.275 1.35,-1.79338 3,-3.37418 1.65,-1.5808 3,-2.64918 3,-2.37418 0,0.275 -1.35,1.79338 -3,3.37418 -1.65,1.5808 -3,2.64918 -3,2.37418 z m 45.07895,-55.45751 c 0.048,-1.16495 0.28494,-1.4019 0.60416,-0.60417 0.28887,0.72187 0.25335,1.58437 -0.0789,1.91667 -0.3323,0.33229 -0.56864,-0.25834 -0.52522,-1.3125 z m -29,-2 c 0.048,-1.16495 0.28494,-1.4019 0.60416,-0.60417 0.28887,0.72187 0.25335,1.58437 -0.0789,1.91667 -0.3323,0.33229 -0.56864,-0.25834 -0.52522,-1.3125 z m 10,0 c 0.048,-1.16495 0.28494,-1.4019 0.60416,-0.60417 0.28887,0.72187 0.25335,1.58437 -0.0789,1.91667 -0.3323,0.33229 -0.56864,-0.25834 -0.52522,-1.3125 z m -10,-12 c 0.048,-1.16495 0.28494,-1.4019 0.60416,-0.60417 0.28887,0.72187 0.25335,1.58437 -0.0789,1.91667 -0.3323,0.33229 -0.56864,-0.25834 -0.52522,-1.3125 z"
       id="path5229"
       inkscape:connector-curvature="0" />
    <path
       style="fill:none;fill-opacity:1;stroke:#ddd;stroke-width:3;stroke-miterlimit:4;stroke-dasharray:none;stroke-opacity:1"
       d="M 129.66667,254.33333 C 129.3,253.96667 129,250.36667 129,246.33333 129,242.3 128.64558,239 128.21241,239 c -0.43318,0 -3.02068,2.26842 -5.75,5.04093 -3.74014,3.79932 -5.57817,4.96927 -7.46241,4.75 -3.86706,-0.45002 -3.6709,-3.74833 0.4611,-7.75322 4.10367,-3.97744 4.65733,-6.35021 1.2889,-5.52379 -4.82447,1.18367 -13.24507,2.23333 -14.39039,1.79383 -1.95066,-0.74853 -2.542419,-3.55351 -1.062,-5.03393 0.7541,-0.7541 7.18313,-2.31591 14.28674,-3.47068 7.10361,-1.15478 13.27812,-2.41786 13.72115,-2.80686 0.44302,-0.389 -1.80698,-1.97695 -5,-3.52877 -7.91732,-3.84786 -18.08044,-14.1603 -22.14217,-22.46751 -10.097801,-20.6524 -7.319713,-41.76874 8.52425,-64.79306 8.63986,-12.55538 14.23954,-27.47597 17.90435,-47.70694 2.58182,-14.252518 2.61331,-50.970929 0.059,-68.824744 -1.00914,-7.053609 -1.68093,-12.9619734 -1.49287,-13.1296991 0.18805,-0.1677257 2.64749,-1.4628253 5.46542,-2.8779991 4.13333,-2.07577607 5.63132,-2.34060081 6.69872,-1.3703005 0.89174,0.6808776 3.95426,9.6637127 7.0582,20.7027427 11.53885,41.037508 17.33365,52.682878 36.52106,73.393659 14.5674,15.723961 21.98287,28.275351 26.23658,44.407871 2.69057,10.20422 2.87825,28.57658 0.40042,39.19847 -3.54918,15.21452 -13.32114,31.6758 -23.29139,39.23533 -8.9266,6.76822 -13.27423,8.15077 -26.99263,8.58366 -6.73505,0.21253 -12.04299,0.71416 -11.79542,1.11474 0.24758,0.40058 3.62627,1.32762 7.50821,2.06009 7.6416,1.44187 9.55755,2.77734 8.54798,5.95819 -0.76907,2.42312 -2.57259,2.5223 -11.51523,0.63324 -3.575,-0.7552 -6.6783,-1.20502 -6.89621,-0.99962 -0.21792,0.20541 1.5063,2.43745 3.83159,4.96009 2.60947,2.83094 4.00518,5.16679 3.64621,6.10224 C 152.26172,247.48155 152,248.35177 152,248.58179 152,248.8118 150.97058,249 149.71241,249 c -1.4218,0 -4.1515,-1.89236 -7.21241,-5 -2.70865,-2.75 -5.27923,-5 -5.71241,-5 -0.43317,0 -0.78759,2.72958 -0.78759,6.06574 0,3.33616 -0.46583,6.93616 -1.03518,8 -1.01134,1.88971 -3.96853,2.59722 -5.29815,1.26759 z M 90,225.85763 C 66.33584,221.94847 50.095694,198.79583 48.290545,166.39485 46.515794,134.53949 59.783033,107.01529 86.5,87.125579 101.46614,75.983883 109.63596,66.263747 117.123,50.691489 L 121.06142,42.5 120.58458,60 c -0.89821,32.964022 -5.88549,50.86435 -20.25872,72.7125 -6.721954,10.21777 -9.870767,17.26418 -12.366557,27.67388 -5.026676,20.96578 0.737595,42.7744 15.419367,58.33786 l 6.60285,6.99937 -5.24076,0.6295 c -6.194145,0.74402 -7.50392,0.7 -14.74076,-0.49548 z m 107.84914,-4.70677 c 15.46779,-15.46779 23.49482,-36.17527 23.51065,-60.65086 0.0173,-26.80741 -10.11006,-46.74944 -29.35986,-70 -5.63768,-6.809385 -15.43073,-18.823835 -18.11471,-22.714469 -5.93932,-8.609482 35.30295,25.329674 41.15266,30.41235 11.8159,10.266559 18.77244,24.705099 23.05145,40.802619 3.1241,11.75276 3.11999,32.72871 -0.009,44.4995 -6.82257,25.66791 -20.79845,39.83578 -42.25558,42.83605 l -3.67495,0.51385 5.69904,-5.69904 z M 57.799617,224.45114 C 43.402683,220.96015 29.779949,210.69731 23.305893,198.46489 15.378445,183.48636 13.086244,161.39571 17.861956,146 24.75639,123.77405 40.699928,103.33514 63.935991,86.935126 72.163936,81.127843 92.307822,69.216554 89,72.271497 88.821497,72.436353 84.760029,75.942315 79.577842,79.888907 59.215929,95.395906 46.462731,114.05119 40.793063,136.62301 37.553891,149.51864 37.547722,173.79828 40.780517,186 c 3.429179,12.94294 10.141109,25.76799 17.524539,33.48561 3.427766,3.58291 5.998897,6.4769 5.713623,6.43108 -0.285273,-0.0458 -3.083852,-0.70532 -6.219062,-1.46555 z"
       id="path5227"
       inkscape:connector-curvature="0"
       sodipodi:nodetypes="csssccccscccsssscscsssssscscccscsssssscsssscsssscssccsssscccccssssssssscs" />
  </g>
</svg>
